<svg width="35" height="18" viewBox="0 0 35 18" fill="none" xmlns="http://www.w3.org/2000/svg">
<path fill-rule="evenodd" clip-rule="evenodd" d="M31.7628 4.05434C31.3877 4.05434 31.0323 4.14008 30.7151 4.29294C30.636 3.02844 29.5827 2.02384 28.2987 2.02384C27.9229 2.02384 27.5669 2.10985 27.2492 2.26327C27.1591 1.00953 26.1109 0.0167847 24.8346 0.0167847C23.4993 0.0167847 22.4129 1.10313 22.4129 2.43847V6.45262C22.4129 6.83346 22.7217 7.14222 23.1025 7.14222C23.4834 7.14222 23.7921 6.83346 23.7921 6.45262V2.43847C23.7921 1.86362 24.2598 1.39598 24.8346 1.39598C25.4094 1.39598 25.877 1.86362 25.877 2.43847V13.484V15.4911C25.877 16.0659 25.4094 16.5336 24.8346 16.5336C24.2598 16.5336 23.7921 16.0659 23.7921 15.4911V11.4769C23.7921 11.0961 23.4834 10.7873 23.1025 10.7873H13.8015C13.4207 10.7873 13.1119 11.0961 13.1119 11.4769C13.1119 11.8578 13.4207 12.1665 13.8015 12.1665H22.4129V15.4911C22.4129 16.8264 23.4993 17.9128 24.8346 17.9128C26.1109 17.9128 27.1591 16.92 27.2492 15.6663C27.5669 15.8197 27.9229 15.9057 28.2987 15.9057C29.5827 15.9057 30.636 14.901 30.7151 13.6366C31.0323 13.7895 31.3877 13.8752 31.7628 13.8752C33.0981 13.8752 34.1845 12.7889 34.1845 11.4536V6.47593C34.1845 5.14064 33.0981 4.05434 31.7628 4.05434ZM29.3412 13.484C29.3412 14.0589 28.8736 14.5265 28.2987 14.5265C27.7239 14.5265 27.2562 14.0589 27.2562 13.484V4.44552C27.2562 3.87067 27.7239 3.40303 28.2987 3.40303C28.8736 3.40303 29.3412 3.87067 29.3412 4.44552V13.484ZM31.7628 12.496C32.3376 12.496 32.8053 12.0284 32.8053 11.4536V6.47593C32.8053 5.90117 32.3376 5.43353 31.7628 5.43353C31.188 5.43353 30.7204 5.90117 30.7204 6.47593V11.4536C30.7204 12.0284 31.188 12.496 31.7628 12.496Z" fill="#EE4E62"/>
<path fill-rule="evenodd" clip-rule="evenodd" d="M11.1016 10.7873C10.7208 10.7873 10.412 11.0961 10.412 11.4769V15.4911C10.412 16.0659 9.94437 16.5336 9.36952 16.5336C8.79467 16.5336 8.32703 16.0659 8.32703 15.4911V13.484V4.44552V2.43847C8.32703 1.86362 8.79467 1.39598 9.36952 1.39598C9.94437 1.39598 10.412 1.86362 10.412 2.43847V6.45262C10.412 6.83346 10.7208 7.14222 11.1016 7.14222H20.4026C20.7835 7.14222 21.0922 6.83346 21.0922 6.45262C21.0922 6.07178 20.7835 5.76302 20.4026 5.76302H11.7912V2.43847C11.7912 1.10313 10.7049 0.0167847 9.36952 0.0167847C8.09316 0.0167847 7.04502 1.00953 6.95487 2.26327C6.63719 2.10985 6.28113 2.02384 5.90534 2.02384C4.62131 2.02384 3.56802 3.02854 3.48895 4.29294C3.17173 4.14008 2.81631 4.05434 2.44122 4.05434C1.10588 4.05434 0.0195312 5.14068 0.0195312 6.47602V11.4536C0.0195312 12.7889 1.10588 13.8752 2.44122 13.8752C2.81631 13.8752 3.17173 13.7894 3.48895 13.6366C3.56802 14.9011 4.62131 15.9057 5.90534 15.9057C6.28113 15.9057 6.63714 15.8197 6.95487 15.6662C7.04502 16.92 8.09316 17.9127 9.36952 17.9127C10.7049 17.9127 11.7912 16.8264 11.7912 15.491V11.4769C11.7912 11.0961 11.4825 10.7873 11.1016 10.7873ZM2.44131 12.496C1.8665 12.496 1.39882 12.0284 1.39882 11.4536V6.47602C1.39882 5.90117 1.86646 5.43353 2.44131 5.43353C3.01611 5.43353 3.48375 5.90117 3.48375 6.47602V11.4536C3.4837 12.0284 3.01606 12.496 2.44131 12.496ZM4.8629 13.484C4.8629 14.0589 5.33059 14.5265 5.90539 14.5265C6.48024 14.5265 6.94788 14.0589 6.94788 13.484V4.44552C6.94788 3.87067 6.48024 3.40303 5.90539 3.40303C5.33054 3.40303 4.8629 3.87067 4.8629 4.44552V13.484Z" fill="#EE4E62"/>
<path d="M10.41 9.00504V9.23624C10.41 9.61708 10.7188 9.92584 11.0996 9.92584C11.4805 9.92584 11.7892 9.61708 11.7892 9.23624V9.00504C11.7892 8.6242 11.4805 8.31544 11.0996 8.31544C10.7188 8.31544 10.41 8.6242 10.41 9.00504Z" fill="#EE4E62"/>
<path d="M23.7922 8.92837V8.69717C23.7922 8.31632 23.4834 8.00757 23.1026 8.00757C22.7217 8.00757 22.413 8.31632 22.413 8.69717V8.92837C22.413 9.30921 22.7217 9.61796 23.1026 9.61796C23.4834 9.61796 23.7922 9.30921 23.7922 8.92837Z" fill="#EE4E62"/>
</svg>
